<svg width="41" height="41" viewBox="0 0 41 41" fill="none" xmlns="http://www.w3.org/2000/svg">
<path d="M14.5592 18.3804C14.4362 18.4378 14.3255 18.487 14.2148 18.5362C14.1492 18.4747 14.1369 18.4009 14.1123 18.3353C13.6941 17.2529 13.28 16.1746 12.8618 15.0922C12.8372 15.0266 12.8208 14.9569 12.7675 14.8913C12.5748 14.9282 12.3903 14.9815 12.2017 15.0594C12.2181 15.1332 12.2304 15.1947 12.2509 15.2562C12.3657 15.6662 12.4887 16.0721 12.5953 16.4862C12.6896 16.8429 12.7511 17.2037 12.7388 17.5727C12.7265 17.8515 12.6732 18.118 12.5748 18.3763C12.4928 18.5813 12.3698 18.7494 12.1812 18.8806C11.8614 19.102 11.5416 19.3111 11.2013 19.4997C10.533 19.8646 9.86465 20.2213 9.19635 20.578C9.17585 20.5903 9.14715 20.5944 9.11845 20.6067C8.97905 20.4673 8.87655 20.3115 8.75765 20.1639C8.63875 20.0163 8.52395 19.8646 8.40505 19.7129C8.29025 19.5612 8.17135 19.4136 8.05245 19.2619C7.93765 19.1102 7.81875 18.9626 7.70395 18.8109C7.58915 18.6592 7.47025 18.5116 7.35135 18.3599C7.23245 18.2082 7.11765 18.0606 7.00285 17.9089C6.88805 17.7613 6.77325 17.6096 6.63385 17.4415C6.61745 17.503 6.60105 17.5276 6.59695 17.5563C6.55595 17.9827 6.61335 18.3927 6.76915 18.7904C6.88395 19.0856 7.03565 19.3603 7.20785 19.6227C7.48665 20.045 7.81465 20.4304 8.16315 20.7953C8.74945 21.4062 9.37675 21.972 10.0369 22.5009C10.6437 22.9888 11.2669 23.4603 11.8819 23.9359C11.9311 23.9769 11.9844 24.0138 12.0295 24.0507C12.0213 24.0671 12.0213 24.0753 12.0172 24.0794C12.0131 24.0835 12.0049 24.0876 12.0008 24.0876C9.59815 24.0876 7.19145 24.0876 4.77655 24.0876C4.76835 24.0384 4.75605 23.9974 4.75605 23.9523C4.75195 23.6694 4.75195 23.3906 4.74785 23.1077C4.73145 22.1524 4.70685 21.193 4.69865 20.2377C4.69455 19.5448 4.69865 18.8478 4.72325 18.1549C4.73555 17.6957 4.77245 17.2365 4.82575 16.7855C4.96925 15.5596 5.54325 14.5674 6.52315 13.8171C7.12585 13.3538 7.81055 13.0709 8.55265 12.9233C9.06925 12.8208 9.59405 12.7962 10.1189 12.8536C11.4842 13.0094 12.5871 13.6367 13.4071 14.7437C13.854 15.3505 14.141 16.027 14.2886 16.7609C14.3911 17.2611 14.4608 17.7654 14.5469 18.2697C14.5551 18.3066 14.5551 18.3353 14.5592 18.3804Z" fill="#222339"/>
<path d="M27.5151 18.4623C26.0842 18.4377 24.9526 17.8555 24.1695 16.6419C23.8374 16.1294 23.6611 15.5554 23.5914 14.9486C23.3782 13.0913 24.5221 11.3242 26.2646 10.7174C26.7484 10.5493 27.2445 10.4714 27.7529 10.5042C28.3433 10.5411 28.9009 10.7051 29.4134 11.0003C30.4343 11.5948 31.1313 12.4476 31.4224 13.5997C31.6725 14.5919 31.5249 15.5431 31.0288 16.4287C30.4343 17.4865 29.5282 18.1384 28.3392 18.3885C28.1998 18.4172 28.0563 18.4418 27.9128 18.4541C27.7775 18.4705 27.6463 18.4623 27.5151 18.4623Z" fill="#954143"/>
<path d="M17.9458 9.08569C17.9376 10.9348 16.6133 12.4067 14.9979 12.8249C12.8618 13.3784 10.6314 12.1484 10.1189 9.86059C9.84827 8.42149 10.1763 7.15459 11.2095 6.10089C11.7999 5.49819 12.5297 5.14149 13.3661 5.01849C15.2234 4.74789 16.888 5.74009 17.5932 7.31039C17.8269 7.83929 17.9417 8.39279 17.9458 9.08569Z" fill="#222339"/>
<path d="M9.88501 21.2504C9.96701 21.1971 10.0285 21.1561 10.0859 21.1151C10.5041 20.8445 10.9223 20.578 11.3405 20.3033C11.6439 20.1065 11.9555 19.9261 12.2876 19.7867C13.0297 19.4792 13.7636 19.4833 14.5016 19.8031C14.7681 19.9179 15.0223 20.0532 15.256 20.2213C15.8341 20.6395 16.4819 20.8937 17.1666 21.07C17.6955 21.2053 18.2285 21.2955 18.7656 21.3816C19.3232 21.4677 19.8767 21.5579 20.4343 21.6481C20.6803 21.6891 20.9263 21.726 21.1682 21.7793C21.3281 21.8162 21.4839 21.8654 21.6356 21.9269C22.0333 22.0909 22.2588 22.3984 22.3203 22.8166C22.3613 23.0913 22.3572 23.366 22.2916 23.6366C22.1973 24.0384 21.9595 24.3131 21.57 24.4484C21.3978 24.5099 21.2174 24.5427 21.0329 24.5632C20.6188 24.6042 20.2088 24.5919 19.7947 24.5837C19.5856 24.5796 19.3765 24.5714 19.1674 24.5673C18.4745 24.555 17.7775 24.514 17.0887 24.4484C16.1949 24.3623 15.3093 24.2147 14.4442 23.9687C13.1363 23.5997 11.9432 23.0052 10.8813 22.1524C10.5328 21.8818 10.2253 21.5661 9.88501 21.2504Z" fill="#222339"/>
<path d="M26.6665 24.1656C25.5882 24.1656 24.5345 24.1656 23.4685 24.1656C23.448 24.1123 23.4234 24.059 23.407 24.0016C23.1364 23.0422 22.8699 22.0869 22.5993 21.1275C22.546 20.943 22.5501 20.943 22.6895 20.8036C23.0954 20.4018 23.5669 20.1025 24.104 19.9057C24.5222 19.7499 24.9568 19.6638 25.4037 19.6187C26.1827 19.5449 26.9617 19.5695 27.7407 19.6105C27.9129 19.6187 28.081 19.6187 28.2532 19.6269C28.5033 19.6351 28.7493 19.6474 28.9994 19.6556C29.024 19.6556 29.0486 19.6638 29.0773 19.672C29.0732 19.7007 29.0732 19.7212 29.065 19.7335C28.2696 21.2095 27.4701 22.6814 26.6665 24.1656Z" fill="#954143"/>
<path d="M32.9149 21.4636C32.3901 21.275 31.8817 21.0905 31.3528 20.9019C31.4061 20.8568 31.443 20.8199 31.484 20.7912C31.6029 20.6969 31.7218 20.6067 31.8407 20.5165C31.9268 20.4509 32.0088 20.4427 32.1154 20.4878C33.2757 20.988 34.4319 21.4923 35.5389 22.0991C35.9079 22.3 36.1211 22.6157 36.2523 22.997C36.2974 23.1282 36.2892 23.2553 36.2154 23.3742C35.9243 23.8334 35.5389 24.1368 34.9649 24.1737C33.8579 24.2434 32.7509 24.2024 31.648 24.1983C31.5578 24.1983 31.4635 24.1942 31.3733 24.1901C31.361 24.1901 31.3487 24.1819 31.3241 24.1696C31.32 24.1409 31.3118 24.104 31.3118 24.0671C31.3118 23.4398 31.3118 22.8084 31.3118 22.1811C31.3118 22.1483 31.3159 22.1155 31.32 22.0745C31.8202 21.9884 32.3204 21.9474 32.8165 21.8654C32.878 21.7465 32.8862 21.6153 32.9149 21.4636Z" fill="#954143"/>
<path d="M30.2579 21.6482C30.2866 21.8122 30.2989 23.6736 30.2784 24.2066C30.2784 24.2435 30.2661 24.2804 30.262 24.3214C30.2333 24.3214 30.2128 24.3255 30.1964 24.3214C29.729 24.182 29.2575 24.0426 28.7901 23.895C28.6302 23.8458 28.4785 23.7638 28.3186 23.7023C28.2325 23.6654 28.1833 23.6039 28.1587 23.5178C28.0972 23.2923 28.0849 23.0668 28.1218 22.8372C28.1341 22.7552 28.1751 22.6937 28.2489 22.6486C28.3637 22.5748 28.4785 22.4928 28.5974 22.4313C28.9172 22.2673 29.2411 22.1115 29.565 21.9557C29.7577 21.8614 29.9545 21.7712 30.1513 21.6851C30.18 21.6646 30.221 21.6605 30.2579 21.6482Z" fill="#954143"/>
<path d="M30.0817 21.3816C29.9095 21.2791 29.7455 21.1848 29.5815 21.0864C29.561 21.0741 29.5446 21.0536 29.52 21.0331C29.5323 21.0003 29.5405 20.9675 29.5528 20.9388C30.0858 19.8892 30.6188 18.8396 31.1518 17.79C31.3158 17.8351 31.5946 17.9786 31.7176 18.0729C31.6725 18.2123 30.2006 21.193 30.0817 21.3816Z" fill="#954143"/>
<path d="M39.8192 26.1418C39.8192 26.1295 39.8151 26.1131 39.811 26.1008C39.811 26.0926 39.8069 26.0803 39.8028 26.0721C39.7987 26.0557 39.7946 26.0352 39.7864 26.0188C39.7823 26.0106 39.7823 26.0024 39.7782 25.9942C39.7454 25.9081 39.7044 25.8261 39.647 25.7564C39.6347 25.7441 39.6224 25.7277 39.6101 25.7154C39.5937 25.6949 39.5732 25.6785 39.5527 25.658C39.5445 25.6498 39.5363 25.6457 39.5281 25.6375C39.5117 25.6252 39.4953 25.6088 39.4789 25.5965C39.4707 25.5883 39.4625 25.5842 39.4502 25.576C39.4338 25.5637 39.4133 25.5555 39.3969 25.5432C39.3764 25.5309 39.36 25.5227 39.3395 25.5145C39.319 25.5063 39.2985 25.4981 39.278 25.4899C39.2493 25.4776 39.2165 25.4694 39.1837 25.4612C39.1632 25.4571 39.1427 25.453 39.1181 25.4489C39.1058 25.4489 39.0976 25.4448 39.0853 25.4448C39.0566 25.4407 39.0279 25.4407 39.0033 25.4407H1.99671C1.54161 25.4407 1.17261 25.8097 1.17261 26.2648V32.1196C1.17261 32.5747 1.54161 32.9437 1.99671 32.9437H39.0033C39.0197 32.9437 39.032 32.9437 39.0443 32.9437C39.073 32.9437 39.1017 32.9396 39.1304 32.9355C39.1427 32.9314 39.1591 32.9314 39.1714 32.9273C39.2042 32.9191 39.2329 32.9109 39.2616 32.9027C39.2944 32.8904 39.3231 32.8781 39.3559 32.8658C39.4461 32.8207 39.5281 32.7633 39.5978 32.6895C39.6429 32.6403 39.6839 32.587 39.7208 32.5255C39.7208 32.5255 39.7208 32.5255 39.7208 32.5214C39.7577 32.4558 39.7864 32.382 39.8069 32.3041C39.811 32.2877 39.8151 32.2672 39.8192 32.2508C39.8192 32.2426 39.8233 32.2344 39.8233 32.2262C39.8233 32.2221 39.8233 32.2221 39.8233 32.218C39.8233 32.2057 39.8274 32.1975 39.8274 32.1852C39.8274 32.177 39.8274 32.1688 39.8274 32.1606C39.8274 32.1483 39.8274 32.1319 39.8274 32.1196V26.2689C39.8274 26.2238 39.8233 26.1828 39.8192 26.1418ZM7.24471 29.1266C7.03151 29.2824 6.79371 29.389 6.53951 29.4546C6.18281 29.5489 5.81791 29.5817 5.44891 29.5735C5.37101 29.5694 5.29311 29.5735 5.18651 29.5735C5.18241 29.6678 5.17831 29.7375 5.17831 29.8072C5.17831 30.1352 5.17831 30.4632 5.17831 30.7912C5.17831 30.8609 5.17421 30.9347 5.17011 31.0126C4.97331 31.0536 4.78471 31.029 4.59611 31.0331C4.40751 31.0372 4.21891 31.0331 4.02211 31.0331C4.00981 30.9839 4.00161 30.9511 3.99751 30.9142C3.99341 30.8691 3.99751 30.824 3.99751 30.7789C3.99751 29.5735 3.99751 28.3681 3.99751 27.1627C3.99751 27.0848 3.98521 27.0069 4.02211 26.9249C4.05081 26.9167 4.07951 26.9003 4.10821 26.8962C4.29681 26.8798 4.48541 26.8593 4.67401 26.8511C5.00201 26.8347 5.33001 26.8183 5.65391 26.8224C6.01881 26.8265 6.38371 26.8552 6.74041 26.9659C6.90441 27.0151 7.06021 27.0848 7.19961 27.1791C7.94581 27.6752 7.83101 28.7002 7.24471 29.1266ZM10.619 28.8478C10.414 28.8232 10.2254 28.8068 10.0368 28.8642C9.96711 28.8847 9.89741 28.9052 9.83591 28.938C9.64731 29.0323 9.54481 29.1922 9.52021 29.4054C9.51201 29.471 9.51611 29.5366 9.51611 29.6022C9.51611 30.0081 9.51611 30.414 9.51611 30.8199C9.51611 30.8855 9.50791 30.947 9.50381 31.0167C9.46691 31.0249 9.44231 31.0331 9.41771 31.0331C9.06511 31.0331 8.71251 31.0331 8.35171 31.0331C8.33941 30.988 8.32711 30.9511 8.32301 30.9142C8.31891 30.8568 8.32301 30.7953 8.32301 30.7379C8.32301 30.045 8.32301 29.3521 8.31891 28.6551C8.31891 28.4788 8.30661 28.3025 8.30251 28.1262C8.30251 28.0893 8.31071 28.0524 8.31071 28.0073C8.42551 27.9786 8.54031 27.995 8.64691 27.9909C8.75351 27.9868 8.85601 27.9909 8.96261 27.9909C9.07331 27.9909 9.18401 27.995 9.29881 27.9991C9.35621 28.1631 9.33981 28.3271 9.36441 28.5157C9.42591 28.4337 9.47101 28.3722 9.52021 28.3189C9.57761 28.2574 9.64321 28.2 9.70881 28.1508C9.77031 28.1057 9.84411 28.0688 9.91381 28.036C9.98351 28.0032 10.0614 27.9786 10.1352 27.9622C10.2172 27.9458 10.3033 27.9417 10.3894 27.9417C10.4673 27.9417 10.5452 27.9335 10.6231 27.9704C10.6559 28.0688 10.6395 28.1672 10.6436 28.2615C10.6477 28.3599 10.6477 28.4583 10.6436 28.5567C10.6477 28.6469 10.6723 28.7453 10.619 28.8478ZM12.423 28.8396C12.423 29.4874 12.423 30.1352 12.423 30.7871C12.423 30.8568 12.4189 30.9306 12.4148 31.0044C12.382 31.0167 12.3574 31.029 12.3369 31.029C11.9966 31.029 11.6563 31.029 11.316 31.029C11.2996 31.029 11.2791 31.0208 11.2504 31.0126C11.2463 30.9716 11.234 30.9265 11.234 30.8855C11.234 29.9753 11.234 29.0651 11.234 28.1549C11.234 28.1098 11.2422 28.0647 11.2504 28.0114C11.439 27.9868 12.2262 27.9868 12.3902 28.0073C12.4353 28.0483 12.4271 28.1016 12.4271 28.1549C12.423 28.3804 12.423 28.61 12.423 28.8396ZM12.2713 27.5153C12.0417 27.6834 11.6358 27.6916 11.398 27.5276C11.1274 27.339 11.1315 26.97 11.4062 26.7855C11.5169 26.7117 11.644 26.6789 11.8203 26.6666C11.9228 26.6871 12.0253 26.6994 12.1237 26.7281C12.1852 26.7486 12.2426 26.7814 12.2918 26.8224C12.5255 27.0151 12.5132 27.3349 12.2713 27.5153ZM16.81 28.1467C16.6624 28.4665 16.5148 28.7904 16.3672 29.1102C16.1048 29.6801 15.8424 30.25 15.58 30.824C15.5513 30.8896 15.5185 30.9511 15.4898 31.0126C15.334 31.0372 14.6001 31.0413 14.3213 31.0249C14.2557 30.9839 14.2434 30.9101 14.2147 30.8445C13.8785 30.0983 13.5423 29.3521 13.2061 28.6059C13.1364 28.4501 13.0667 28.2943 12.997 28.1385C12.9806 28.0975 12.9724 28.0565 12.9601 28.0114C13.1159 27.9786 14.0056 27.9786 14.2147 28.0032C14.3172 28.2082 14.3787 28.4337 14.4607 28.6551C14.5468 28.8806 14.6288 29.1102 14.7067 29.3398C14.7846 29.5612 14.8543 29.7826 14.924 30.0081C15.1454 29.3316 15.3955 28.6715 15.6251 28.0032C15.8424 27.9786 16.0433 27.9909 16.2483 27.9909C16.4451 27.9909 16.6419 27.9786 16.8305 27.9991C16.8674 28.0565 16.8305 28.1016 16.81 28.1467ZM20.4959 31.0044C20.3442 31.0372 19.6349 31.0372 19.4504 31.0085C19.4258 30.9347 19.4012 30.8527 19.3725 30.7625C19.3397 30.783 19.3069 30.7953 19.2823 30.8117C19.0445 30.9921 18.7698 31.07 18.4787 31.0987C18.2409 31.1233 18.0072 31.1028 17.7817 31.0249C17.6177 30.9675 17.4701 30.8855 17.3471 30.7666C16.9822 30.4263 17.0232 29.8974 17.2774 29.5899C17.3881 29.4587 17.5234 29.3562 17.6792 29.2783C17.9334 29.1512 18.2081 29.0856 18.4869 29.0405C18.696 29.0077 18.9051 28.9954 19.1142 28.9954C19.1593 28.9954 19.2044 28.9872 19.2495 28.9831C19.2864 28.8806 19.2372 28.8109 19.1757 28.7494C19.1142 28.6838 19.0363 28.651 18.9502 28.6346C18.7944 28.6018 18.6386 28.5813 18.4828 28.5977C18.2081 28.6264 17.9375 28.6715 17.6833 28.7781C17.6546 28.7904 17.6218 28.7986 17.589 28.8068C17.5111 28.7207 17.4988 28.6141 17.4619 28.5198C17.425 28.4214 17.3963 28.323 17.3594 28.2164C17.4045 28.1918 17.4414 28.1631 17.4824 28.1467C17.7776 28.036 18.0851 27.9704 18.4008 27.9499C18.6345 27.9335 18.8723 27.9417 19.106 27.9458C19.3192 27.9499 19.5242 27.9991 19.7169 28.077C20.1884 28.2656 20.4426 28.6182 20.4672 29.1307C20.4795 29.3931 20.4713 29.6555 20.4713 29.9179C20.4672 30.2459 20.4754 30.5739 20.5082 30.8978C20.4959 30.9306 20.4959 30.9675 20.4959 31.0044ZM22.6238 29.7908C22.6238 29.8605 22.6361 29.9343 22.6484 30.004C22.673 30.1762 22.7837 30.2828 22.9846 30.2992C23.083 30.3074 23.1814 30.2992 23.2798 30.2992H23.3987C23.4561 30.414 23.4274 30.5329 23.4315 30.6477C23.4356 30.7625 23.4479 30.8814 23.4233 30.9962C23.3085 31.0782 23.1814 31.07 23.0584 31.0864C22.7591 31.1233 22.4557 31.1274 22.1646 31.0331C22.0908 31.0085 22.017 30.9798 21.9473 30.947C21.7505 30.8486 21.6152 30.6928 21.5414 30.4878C21.484 30.3279 21.4553 30.1598 21.4553 29.9876C21.4553 29.635 21.4553 29.2824 21.4553 28.9257C21.4553 28.8601 21.4512 28.7986 21.4471 28.7248C21.2913 28.6879 21.1396 28.7289 20.992 28.6961C20.9305 28.5813 20.9633 28.4624 20.9592 28.3476C20.9551 28.2369 20.9428 28.1262 20.9797 28.0073C21.1314 27.9581 21.2913 28.0114 21.4512 27.9663C21.4717 27.7613 21.4471 27.5604 21.4676 27.3513C21.6521 27.2816 21.8407 27.2652 22.0252 27.2324C22.2097 27.1955 22.3983 27.1627 22.5951 27.1258C22.6074 27.1709 22.6238 27.2078 22.6238 27.2406C22.6279 27.4251 22.6238 27.6055 22.6279 27.79C22.6279 27.8474 22.6361 27.9048 22.6402 27.9663C22.9108 28.0032 23.1732 27.9581 23.4315 27.9909C23.4766 28.1467 23.4766 28.4911 23.4356 28.6879C23.1814 28.7166 22.919 28.6838 22.6484 28.7084C22.6402 28.7535 22.6279 28.7945 22.6279 28.8396C22.6197 29.1635 22.6197 29.4792 22.6238 29.7908ZM27.388 29.8154C27.3019 29.8195 27.224 29.8236 27.1461 29.8277C26.5188 29.8277 25.8874 29.8277 25.2601 29.8277C25.1822 29.8277 25.1043 29.8195 25.0182 29.8523C25.0223 29.8892 25.0223 29.9302 25.0346 29.963C25.0756 30.0573 25.1453 30.1229 25.2273 30.1803C25.3544 30.2664 25.4979 30.3156 25.6455 30.3402C25.8382 30.373 26.035 30.3935 26.2318 30.373C26.4737 30.3484 26.7156 30.3402 26.9493 30.2746C26.978 30.2664 27.0149 30.2705 27.0518 30.2664C27.1215 30.3648 27.1256 30.4755 27.1502 30.5821C27.1748 30.6805 27.2117 30.783 27.2158 30.8937C27.1748 30.9142 27.142 30.9347 27.1092 30.9429C26.896 31.0003 26.6746 31.0413 26.4532 31.07C26.2072 31.0987 25.9571 31.111 25.707 31.1028C25.4159 31.0946 25.133 31.0454 24.8624 30.947C24.6902 30.8855 24.5262 30.8035 24.3786 30.6887C24.0506 30.4304 23.8825 30.0901 23.8497 29.676C23.7964 28.9298 24.2392 28.3148 24.9198 28.0647C25.2273 27.9499 25.543 27.9253 25.8669 27.9335C26.0965 27.9417 26.322 27.9786 26.5393 28.0647C27.0518 28.2738 27.3347 28.6592 27.4167 29.2045C27.4454 29.4013 27.4413 29.5981 27.388 29.8154ZM34.5671 30.3894C34.4236 30.4304 34.2842 30.3894 34.1407 30.4222C34.1366 30.4755 34.1243 30.5247 34.1243 30.5739C34.1243 30.8486 34.1243 31.1233 34.1243 31.398C34.1243 31.4636 34.1325 31.5292 34.0997 31.5989C33.9193 31.6276 33.7389 31.6112 33.5667 31.6071C33.5093 31.562 33.5175 31.5046 33.5175 31.4554C33.5175 31.1807 33.5175 30.906 33.5175 30.6313C33.5175 30.5657 33.5134 30.5001 33.5134 30.4468C33.4355 30.3935 33.3576 30.4099 33.2879 30.4099C32.7549 30.4099 32.226 30.4099 31.6971 30.4099C31.6274 30.4099 31.5536 30.4058 31.4798 30.4058C31.4347 30.291 31.4511 30.1803 31.4634 30.0737C31.4634 30.0491 31.4839 30.0286 31.5003 30.0081C31.5249 29.9753 31.5495 29.9466 31.5741 29.9179C32.2957 29.061 33.0214 28.2082 33.743 27.3513C33.7922 27.2898 33.8455 27.2324 33.8947 27.175H34.0956C34.1448 27.2447 34.1243 27.3185 34.1243 27.3882C34.1243 28.1467 34.1243 28.9093 34.1243 29.6678C34.1243 29.7457 34.1284 29.8236 34.1284 29.9138C34.2842 29.963 34.4236 29.9097 34.5589 29.9589C34.5876 30.0983 34.5753 30.2377 34.5671 30.3894ZM37.8676 27.9048C37.6503 27.9212 37.433 27.9089 37.2198 27.913C37.0148 27.9171 36.8057 27.8966 36.5843 27.9294C36.5679 28.1385 36.5802 28.3394 36.5761 28.5403C36.5761 28.7453 36.5761 28.9462 36.5761 29.1512V30.3689C36.5761 30.5739 36.5761 30.7748 36.5761 30.9757C36.5761 31.1766 36.5802 31.3816 36.572 31.5866C36.3875 31.6358 36.2153 31.5989 36.0308 31.6112C36.0226 31.562 36.0103 31.5251 36.0103 31.4882C36.0062 31.4021 36.0103 31.316 36.0103 31.234C36.0103 30.2049 36.0103 29.1799 36.0103 28.1508C36.0103 28.0811 36.0062 28.0073 36.0021 27.9294C35.7848 27.8966 35.5757 27.9171 35.3666 27.913C35.1575 27.9089 34.9484 27.9171 34.7434 27.9089C34.6942 27.7777 34.6901 27.6506 34.727 27.4538C34.7557 27.4497 34.7885 27.4415 34.8172 27.4415C35.8299 27.4415 36.8467 27.4415 37.8758 27.4415C37.8963 27.6096 37.9086 27.749 37.8676 27.9048Z" fill="#954143"/>
<path d="M6.26072 27.6917C6.19102 27.6548 6.11722 27.6261 6.04342 27.6097C5.78102 27.54 5.51042 27.5605 5.24392 27.5851C5.23162 27.5851 5.22342 27.5974 5.20292 27.6097C5.19882 27.6261 5.18652 27.6507 5.18652 27.6753C5.18652 28.0238 5.18652 28.3682 5.18652 28.7167C5.18652 28.7413 5.19882 28.7659 5.21112 28.811C5.40792 28.811 5.59242 28.8192 5.77282 28.8069C5.88762 28.7987 6.00242 28.7618 6.11722 28.7249C6.22382 28.6921 6.31402 28.6265 6.39602 28.5486C6.61332 28.3108 6.60102 27.8721 6.26072 27.6917Z" fill="#954143"/>
<path d="M18.6059 29.6924C18.5116 29.7211 18.4214 29.7621 18.3517 29.8359C18.1754 30.0163 18.2369 30.2952 18.4706 30.3772C18.7207 30.4633 18.9462 30.414 19.1512 30.25C19.225 30.1926 19.2783 30.1147 19.2906 30.0204C19.3029 29.8933 19.307 29.7622 19.2865 29.6187C19.0405 29.5982 18.8191 29.6309 18.6059 29.6924Z" fill="#954143"/>
<path d="M25.9857 28.6345C25.8627 28.5812 25.7315 28.5812 25.6003 28.5894C25.3297 28.6058 25.1001 28.7821 25.0181 29.0404C25.0058 29.0732 25.0099 29.1142 25.0099 29.147C25.26 29.1716 26.1702 29.1675 26.3178 29.1388C26.3301 29.0322 26.2932 28.9338 26.2399 28.8436C26.1784 28.7493 26.0882 28.6796 25.9857 28.6345Z" fill="#954143"/>
<path d="M33.5094 29.922C33.0748 29.9384 32.6689 29.9302 32.2261 29.9261C32.2712 29.8605 32.2876 29.8318 32.3122 29.8031C32.8575 29.1348 33.3536 28.5608 33.4807 28.4583C33.4889 28.4665 33.5053 28.4747 33.5053 28.4829C33.5176 28.9544 33.5135 29.4259 33.5094 29.922Z" fill="#954143"/>
<path d="M39.8192 26.1418C39.8192 26.1295 39.8151 26.1131 39.811 26.1008C39.811 26.0926 39.8069 26.0803 39.8028 26.0721C39.7987 26.0557 39.7946 26.0352 39.7864 26.0188C39.7823 26.0106 39.7823 26.0024 39.7782 25.9942C39.7495 25.9081 39.7044 25.8261 39.647 25.7564C39.6347 25.7441 39.6224 25.7277 39.6101 25.7154C39.5937 25.6949 39.5732 25.6785 39.5527 25.658C39.5445 25.6498 39.5363 25.6457 39.5281 25.6375C39.5117 25.6252 39.4953 25.6088 39.4789 25.5965C39.4707 25.5883 39.4625 25.5842 39.4502 25.576C39.4338 25.5637 39.4133 25.5555 39.3969 25.5432C39.3764 25.5309 39.36 25.5227 39.3395 25.5145C39.319 25.5063 39.2985 25.4981 39.278 25.4899C39.2452 25.4776 39.2165 25.4694 39.1837 25.4612C39.1632 25.4571 39.1386 25.453 39.1181 25.4489C39.1058 25.4489 39.0976 25.4448 39.0853 25.4448C39.0566 25.4407 39.0279 25.4407 39.0033 25.4407H30.3441C29.889 25.4407 29.52 25.8097 29.52 26.2648V32.1237C29.52 32.5788 29.889 32.9478 30.3441 32.9478H39.0033C39.0197 32.9478 39.032 32.9478 39.0443 32.9478C39.073 32.9478 39.1017 32.9437 39.1304 32.9396C39.1427 32.9355 39.1591 32.9355 39.1714 32.9314C39.2042 32.9232 39.2329 32.915 39.2616 32.9068C39.2944 32.8945 39.3231 32.8822 39.3559 32.8699C39.4461 32.8289 39.5281 32.7674 39.5978 32.6936C39.6429 32.6444 39.6839 32.5911 39.7208 32.5296C39.7577 32.4599 39.7905 32.3902 39.8069 32.3123C39.811 32.2959 39.8151 32.2754 39.8192 32.259C39.8192 32.2508 39.8233 32.2426 39.8233 32.2344C39.8233 32.2303 39.8233 32.2303 39.8233 32.2262C39.8233 32.2139 39.8274 32.2057 39.8274 32.1934C39.8274 32.1852 39.8274 32.177 39.8274 32.1688C39.8274 32.1565 39.8274 32.1401 39.8274 32.1278V26.2689C39.8274 26.2238 39.8233 26.1828 39.8192 26.1418ZM34.5671 30.3894C34.4236 30.4304 34.2842 30.3894 34.1407 30.4222C34.1366 30.4755 34.1243 30.5247 34.1243 30.5739C34.1243 30.8486 34.1243 31.1233 34.1243 31.398C34.1243 31.4636 34.1325 31.5292 34.0997 31.5989C33.9193 31.6276 33.7389 31.6112 33.5667 31.6071C33.5093 31.562 33.5175 31.5046 33.5175 31.4554C33.5175 31.1807 33.5175 30.906 33.5175 30.6313C33.5175 30.5657 33.5134 30.5001 33.5134 30.4468C33.4355 30.3935 33.3576 30.4099 33.2879 30.4099C32.7549 30.4099 32.226 30.4099 31.6971 30.4099C31.6274 30.4099 31.5536 30.4058 31.4798 30.4058C31.4347 30.291 31.4511 30.1803 31.4634 30.0737C31.4634 30.0491 31.4839 30.0286 31.5003 30.0081C31.5249 29.9753 31.5495 29.9466 31.5741 29.9179C32.2957 29.061 33.0214 28.2082 33.743 27.3513C33.7922 27.2898 33.8455 27.2324 33.8947 27.175H34.0956C34.1448 27.2447 34.1243 27.3185 34.1243 27.3882C34.1243 28.1467 34.1243 28.9093 34.1243 29.6678C34.1243 29.7457 34.1284 29.8236 34.1284 29.9138C34.2842 29.963 34.4236 29.9097 34.5589 29.9589C34.5876 30.0983 34.5753 30.2377 34.5671 30.3894ZM37.8676 27.9048C37.6503 27.9212 37.433 27.9089 37.2198 27.913C37.0148 27.9171 36.8057 27.8966 36.5843 27.9294C36.5679 28.1385 36.5802 28.3394 36.5761 28.5403C36.5761 28.7453 36.5761 28.9462 36.5761 29.1512V30.3689C36.5761 30.5739 36.5761 30.7748 36.5761 30.9757C36.5761 31.1766 36.5802 31.3816 36.572 31.5866C36.3875 31.6358 36.2153 31.5989 36.0308 31.6112C36.0226 31.562 36.0103 31.5251 36.0103 31.4882C36.0062 31.4021 36.0103 31.316 36.0103 31.234C36.0103 30.2049 36.0103 29.1799 36.0103 28.1508C36.0103 28.0811 36.0062 28.0073 36.0021 27.9294C35.7848 27.8966 35.5757 27.9171 35.3666 27.913C35.1575 27.9089 34.9484 27.9171 34.7434 27.9089C34.6942 27.7777 34.6901 27.6506 34.727 27.4538C34.7557 27.4497 34.7885 27.4415 34.8172 27.4415C35.8299 27.4415 36.8467 27.4415 37.8758 27.4415C37.8963 27.6096 37.9086 27.749 37.8676 27.9048ZM33.4806 28.4583C33.3576 28.5608 32.8574 29.1307 32.3121 29.8031C32.2875 29.8318 32.2711 29.8646 32.226 29.9261C32.6688 29.9302 33.0747 29.9384 33.5093 29.922C33.5134 29.4259 33.5175 28.9544 33.5052 28.4829C33.5052 28.4747 33.4888 28.4665 33.4806 28.4583Z" fill="#222339"/>
</svg>
